<?xml version="1.0" encoding="utf-8"?>
<!-- Generator: Adobe Illustrator 24.0.3, SVG Export Plug-In . SVG Version: 6.00 Build 0)  -->
<svg version="1.1" id="Layer_1" xmlns="http://www.w3.org/2000/svg" xmlns:xlink="http://www.w3.org/1999/xlink" x="0px" y="0px"
	 viewBox="0 0 1213.5 387.8" style="enable-background:new 0 0 1213.5 387.8;" xml:space="preserve">
<style type="text/css">
	.st0{fill:url(#SVGID_1_);}
	.st1{fill:url(#SVGID_2_);}
	.st2{fill:url(#SVGID_3_);}
	.st3{fill:url(#SVGID_4_);}
	.st4{fill:url(#SVGID_5_);}
	.st5{fill:#4766B0;stroke:#DCDBDB;stroke-width:2;stroke-miterlimit:10;}
	.st6{fill:#4766B0;}
	.st7{font-family:'Palatino-Bold';}
	.st8{font-size:88px;}
	.st9{fill:#919190;}
	.st10{font-size:49px;}
</style>
<g>
	<g>
		<g>
			<linearGradient id="SVGID_1_" gradientUnits="userSpaceOnUse" x1="133.4359" y1="95.6853" x2="426.6446" y2="95.6853">
				<stop  offset="0" style="stop-color:#979797"/>
				<stop  offset="4.372825e-03" style="stop-color:#9A999A"/>
				<stop  offset="5.483538e-02" style="stop-color:#B4B3B3"/>
				<stop  offset="0.1097" style="stop-color:#CAC9C9"/>
				<stop  offset="0.1703" style="stop-color:#DDDDDD"/>
				<stop  offset="0.2393" style="stop-color:#EBECEC"/>
				<stop  offset="0.3237" style="stop-color:#F4F5F6"/>
				<stop  offset="0.4685" style="stop-color:#F7F9FA"/>
				<stop  offset="0.6632" style="stop-color:#E2E3E4"/>
				<stop  offset="1" style="stop-color:#BBBCBE"/>
			</linearGradient>
			<path class="st0" d="M400.2,58.8c0,0,14.4,25.3,26.4,38.3c0,0-79.8,42-171.5,17.5c-71.1-19-111.3,17.9-111.3,17.9l-10.4-33.9
				c0,0,12.3-12.3,44.7-14.1C248.9,80.6,376.2,82.4,400.2,58.8z"/>
			<linearGradient id="SVGID_2_" gradientUnits="userSpaceOnUse" x1="126.7382" y1="62.0787" x2="404.1437" y2="62.0787">
				<stop  offset="0" style="stop-color:#DA1F26"/>
				<stop  offset="0.1474" style="stop-color:#B71D22"/>
				<stop  offset="0.3827" style="stop-color:#8A1619"/>
				<stop  offset="0.4998" style="stop-color:#791214"/>
				<stop  offset="0.5901" style="stop-color:#801416"/>
				<stop  offset="0.7364" style="stop-color:#95191C"/>
				<stop  offset="0.9194" style="stop-color:#B71F24"/>
				<stop  offset="1" style="stop-color:#C92026"/>
			</linearGradient>
			<path class="st1" d="M126.7,72.2c0,0,33.1-14.1,136.7,3.7c66,11.3,118.3-51.7,118.3-51.7l22.3,41.2c0,0-31.5,27.6-82.6,33.2
				c-51.9,5.7-85.1-8.9-112.6-10.9c-56.2-4.1-75.5,10.9-75.5,10.9L126.7,72.2z"/>
			<linearGradient id="SVGID_3_" gradientUnits="userSpaceOnUse" x1="147.9475" y1="142.7549" x2="459.8278" y2="142.7549">
				<stop  offset="0" style="stop-color:#979797"/>
				<stop  offset="4.372825e-03" style="stop-color:#9A999A"/>
				<stop  offset="5.483538e-02" style="stop-color:#B4B3B3"/>
				<stop  offset="0.1097" style="stop-color:#CAC9C9"/>
				<stop  offset="0.1703" style="stop-color:#DDDDDD"/>
				<stop  offset="0.2393" style="stop-color:#EBECEC"/>
				<stop  offset="0.3237" style="stop-color:#F4F5F6"/>
				<stop  offset="0.4685" style="stop-color:#F7F9FA"/>
				<stop  offset="0.6632" style="stop-color:#E2E3E4"/>
				<stop  offset="1" style="stop-color:#BBBCBE"/>
			</linearGradient>
			<path class="st2" d="M446.4,118.4c0,0,3,3.4,13.4,13c1.5,1.4-42.8,44.4-175.3,23.1c-72.6-11.7-125.8,12.7-125.8,12.7l-10.8-26.9
				c0,0,1.6-35.3,142.8-12.5C323.2,133.1,437.8,126.3,446.4,118.4z"/>
			<linearGradient id="SVGID_4_" gradientUnits="userSpaceOnUse" x1="141.7443" y1="117.5863" x2="446.3655" y2="117.5863">
				<stop  offset="0" style="stop-color:#DA1F26"/>
				<stop  offset="0.1428" style="stop-color:#AF1C21"/>
				<stop  offset="0.2778" style="stop-color:#91181A"/>
				<stop  offset="0.3909" style="stop-color:#7F1416"/>
				<stop  offset="0.4685" style="stop-color:#791214"/>
				<stop  offset="0.5975" style="stop-color:#8E181A"/>
				<stop  offset="0.8661" style="stop-color:#B81F24"/>
				<stop  offset="1" style="stop-color:#C92026"/>
			</linearGradient>
			<path class="st3" d="M141.7,116.7c0,0,17.6-27.2,141,1.7c57.3,13.4,140.6-24.7,140.6-24.7l23,24.7c0,0-19.5,16.7-82.7,21.9
				c-66,5.4-101.6-9.3-128.7-14.1c-55.4-9.9-88.3,15.4-88.3,15.4L141.7,116.7z"/>
			<linearGradient id="SVGID_5_" gradientUnits="userSpaceOnUse" x1="158.7381" y1="162.5462" x2="482.8305" y2="162.5462">
				<stop  offset="0" style="stop-color:#DA1F26"/>
				<stop  offset="0.1428" style="stop-color:#AF1C21"/>
				<stop  offset="0.2778" style="stop-color:#91181A"/>
				<stop  offset="0.3909" style="stop-color:#7F1416"/>
				<stop  offset="0.4685" style="stop-color:#791214"/>
				<stop  offset="0.5975" style="stop-color:#8E181A"/>
				<stop  offset="0.8661" style="stop-color:#B81F24"/>
				<stop  offset="1" style="stop-color:#C92026"/>
			</linearGradient>
			<path class="st4" d="M158.7,167.1c36.4-18.8,63.9-20.7,82.7-18.7c9.7,1,15.2,2.9,38.8,5.9c13.8,1.8,31.9,4.1,53.4,4.7
				c24.2,0.8,42.9,1.3,65.8-3.6c14.1-3,36.1-9.4,60.3-24.2c8.1,5.7,15,10.4,23,16.1c-7.8,6-20.2,14.5-37.1,21.3
				c-32.5,13.1-62.1,12-86,10.8c-25.1-1.2-25.8-4.5-68.5-8c-21.9-1.8-32.8-2.7-43.5-2.1c-17.5,1-44.6,5.6-76.8,24.3L158.7,167.1z"/>
		</g>
		<polygon class="st5" points="116.2,18 133.1,100.2 217.4,91.5 143.9,133.9 178.8,210.5 116.2,155.9 53.7,210.5 85.5,134.8 
			15,91.5 97.6,101 		"/>
	</g>
	<text transform="matrix(1 0 0 1 35.069 274.3562)" class="st6 st7 st8">US ProSoft</text>
	<text transform="matrix(1 0 0 1 118.7929 347.1267)" class="st9 st7 st10">A Service-Disabled Veteran Owned Corporation</text>
</g>
</svg>
